<?xml version="1.0" standalone="no"?>
<!DOCTYPE svg PUBLIC "-//W3C//DTD SVG 20010904//EN"
 "http://www.w3.org/TR/2001/REC-SVG-20010904/DTD/svg10.dtd">
<svg version="1.0" xmlns="http://www.w3.org/2000/svg"
 width="1096.000000pt" height="1096.000000pt" viewBox="0 0 1096.000000 1096.000000"
 preserveAspectRatio="xMidYMid meet">
<metadata>
Created by potrace 1.16, written by Peter Selinger 2001-2019
</metadata>
<g transform="translate(0.000000,1096.000000) scale(0.100000,-0.100000)"
fill="#000000" stroke="none">
<path d="M5145 9988 c-549 -40 -1111 -195 -1621 -447 -1372 -676 -2321 -2000
-2523 -3518 -91 -680 -24 -1388 190 -2036 527 -1592 1907 -2791 3552 -3086
312 -56 430 -66 802 -65 354 0 449 7 735 55 1244 208 2371 940 3077 1999 774
1161 970 2626 531 3970 -315 965 -965 1818 -1818 2387 -573 382 -1236 631
-1905 717 -273 35 -727 46 -1020 24z m1765 -2156 l0 -553 -367 2 c-404 3 -434
0 -478 -53 -44 -52 -48 -85 -52 -445 l-5 -343 461 0 c254 0 461 -4 461 -8 0
-4 -20 -233 -45 -507 -25 -275 -45 -503 -45 -507 0 -5 -184 -8 -410 -8 l-410
0 0 -1489 c0 -1410 -1 -1490 -17 -1495 -55 -16 -465 -27 -825 -20 l-398 7 0
1473 0 1474 -25 0 c-67 0 -579 31 -587 36 -4 3 -8 237 -8 520 l0 514 303 0
304 0 6 468 c4 257 12 508 18 557 68 546 408 846 1039 915 52 5 111 12 130 14
19 2 241 3 493 2 l457 -1 0 -553z"/>
</g>
</svg>
