<?xml version="1.0" encoding="iso-8859-1"?>
<!-- Generator: Adobe Illustrator 19.0.0, SVG Export Plug-In . SVG Version: 6.00 Build 0)  -->
<svg version="1.1" id="Layer_1" xmlns="http://www.w3.org/2000/svg" xmlns:xlink="http://www.w3.org/1999/xlink" x="0px" y="0px"
	 viewBox="0 0 473.935 473.935" style="enable-background:new 0 0 473.935 473.935;" xml:space="preserve">
<circle style="fill:#4ABC96;" cx="236.967" cy="236.967" r="236.967"/>
<g>
	<path style="fill:#ED7B3A;" d="M337.034,237.3c0,0,70.144-27.195,50.099-74.435c0,0-47.955-27.203-82.312,47.24L337.034,237.3z"/>
	<path style="fill:#ED7B3A;" d="M345.068,223.074c0,0,74.289,11.914,64.568,62.308c0,0-41.205,36.628-90.372-28.976L345.068,223.074
		z"/>
	<path style="fill:#ED7B3A;" d="M203.894,171.097l44.374,7.154c0,0,11.809-15.027-1.074-22.544
		C234.311,148.194,203.894,171.097,203.894,171.097z"/>
	<path style="fill:#ED7B3A;" d="M203.894,311.661l44.374-7.154c0,0,11.809,15.027-1.074,22.544
		C234.311,334.564,203.894,311.661,203.894,311.661z"/>
</g>
<path style="fill:#D96527;" d="M90.128,247.183c0.935-5.613-19.132-6.776-18.672-8.258c6.447-20.673,56.969-62.447,125.993-68.194
	c41.568-3.457,89.107,17.13,139.587,66.57c0,0-61.747,79.191-143.875,76.752c-36.03-1.081-103.236-15.873-121.17-63.711
	c-1.051-2.806-1.134-3.633-0.891-5.108C71.405,243.381,88.916,254.453,90.128,247.183z"/>
<circle style="fill:#ED7B3A;" cx="162.394" cy="217.248" r="19.079"/>
<path style="fill:#444545;" d="M176.152,217.263c0,7.592-6.166,13.755-13.747,13.755c-7.6,0-13.762-6.159-13.762-13.755
	c0-7.585,6.159-13.762,13.762-13.762C169.986,203.501,176.152,209.675,176.152,217.263z"/>
<path style="fill:#353535;" d="M161.776,228.881c-6.417,0-11.615-5.212-11.615-11.618c0-6.402,5.197-11.618,11.615-11.618
	C168.178,205.641,168.178,228.881,161.776,228.881z"/>
<g>
</g>
<g>
</g>
<g>
</g>
<g>
</g>
<g>
</g>
<g>
</g>
<g>
</g>
<g>
</g>
<g>
</g>
<g>
</g>
<g>
</g>
<g>
</g>
<g>
</g>
<g>
</g>
<g>
</g>
</svg>
