<?xml version="1.0" standalone="no"?>
<!DOCTYPE svg PUBLIC "-//W3C//DTD SVG 20010904//EN"
 "http://www.w3.org/TR/2001/REC-SVG-20010904/DTD/svg10.dtd">
<svg version="1.0" xmlns="http://www.w3.org/2000/svg"
 width="225.000000pt" height="225.000000pt" viewBox="0 0 225.000000 225.000000"
 preserveAspectRatio="xMidYMid meet">
<metadata>
Created by potrace 1.16, written by Peter Selinger 2001-2019
</metadata>
<g transform="translate(0.000000,225.000000) scale(0.100000,-0.100000)"
fill="#000000" stroke="none">
<path d="M975 2239 c-408 -51 -777 -352 -912 -744 -140 -409 -37 -859 268
-1164 329 -328 824 -420 1250 -232 436 192 711 662 660 1130 -31 291 -139 513
-347 711 -247 236 -574 342 -919 299z m28 -614 c70 -15 185 -69 194 -92 3 -7
-19 -43 -48 -80 -29 -38 -54 -69 -55 -71 -1 -2 -26 9 -56 24 -121 62 -265 38
-364 -60 -69 -69 -98 -145 -91 -238 18 -270 335 -395 530 -209 37 34 77 98 77
121 0 6 -53 10 -150 10 l-150 0 0 95 0 95 260 0 260 0 0 -67 c-1 -156 -52
-285 -155 -389 -200 -202 -522 -201 -722 2 -200 203 -200 516 1 718 127 129
293 178 469 141z m797 -360 l0 -75 75 0 75 0 0 -65 0 -65 -75 0 -75 0 0 -75 0
-75 -65 0 -65 0 0 75 0 74 -72 3 -73 3 0 60 0 60 73 3 72 3 0 74 0 75 65 0 65
0 0 -75z"/>
</g>
</svg>
