<?xml version="1.0" encoding="utf-8"?>
<!-- Generator: Adobe Illustrator 18.0.0, SVG Export Plug-In . SVG Version: 6.00 Build 0)  -->
<!DOCTYPE svg PUBLIC "-//W3C//DTD SVG 1.1//EN" "http://www.w3.org/Graphics/SVG/1.1/DTD/svg11.dtd">
<svg version="1.1" id="Layer_1" xmlns="http://www.w3.org/2000/svg" xmlns:xlink="http://www.w3.org/1999/xlink" x="0px" y="0px"
	 viewBox="0 0 64 64" enable-background="new 0 0 64 64" xml:space="preserve">
<g>
	<g>
		<g>
			<path fill="#26C48F" d="M32,0c17.7,0,32,14.3,32,32S49.7,64,32,64S0,49.7,0,32S14.4,0,32,0z"/>
		</g>
	</g>
	<g>
		<g>
			<path fill="#E15D23" d="M51.3,21.5L22,50.9c-2.4,2.4-6.4,2.4-8.8,0l0,0c-2.4-2.4-2.4-6.4,0-8.8l29.3-29.3c2.4-2.4,6.4-2.4,8.8,0
				l0,0C53.7,15.1,53.7,19.1,51.3,21.5z"/>
		</g>
	</g>
	<g>
		<g>
			<path fill="#FFD655" d="M50.7,22c2.3,2.3,2.2,6.2-0.3,8.7L30.8,50.4c-2.5,2.5-6.4,2.6-8.7,0.3L50.7,22z"/>
		</g>
	</g>
	<g>
		<g>
			<path fill="#FFD655" d="M13.3,42L13.3,42c-2.3-2.3-2.2-6.2,0.3-8.7l19.6-19.6c2.5-2.5,6.4-2.6,8.7-0.3l0,0L13.3,42z"/>
		</g>
	</g>
	<g>
		<g>
			<path fill="#F4EE87" d="M17.4,48.3c-0.6,0-1-0.4-1-1c0-2.5,2-4.5,4.5-4.5c1.4,0,2.5-1.1,2.5-2.5c0-2.9,2.3-5.2,5.2-5.2h0.7
				c1.4,0,2.5-1.1,2.5-2.5v-1.4c0-2.5,2-4.5,4.5-4.5H37c1.4,0,2.5-1.1,2.5-2.5v-1.4c0-2.5,2-4.5,4.5-4.5c1.4,0,2.5-1.1,2.5-2.5
				c0-0.6,0.4-1,1-1s1,0.4,1,1c0,2.5-2,4.5-4.5,4.5c-1.4,0-2.5,1.1-2.5,2.5v1.4c0,2.5-2,4.5-4.5,4.5h-0.7c-1.4,0-2.5,1.1-2.5,2.5
				v1.4c0,2.5-2,4.5-4.5,4.5h-0.7c-1.8,0-3.2,1.4-3.2,3.2c0,2.5-2,4.5-4.5,4.5c-1.4,0-2.5,1.1-2.5,2.5
				C18.4,47.9,17.9,48.3,17.4,48.3z"/>
		</g>
	</g>
</g>
</svg>
