<?xml version="1.0" encoding="iso-8859-1"?>
<!-- Generator: Adobe Illustrator 19.0.0, SVG Export Plug-In . SVG Version: 6.00 Build 0)  -->
<svg version="1.1" id="Capa_1" xmlns="http://www.w3.org/2000/svg" xmlns:xlink="http://www.w3.org/1999/xlink" x="0px" y="0px"
	 viewBox="0 0 512 512" style="enable-background:new 0 0 512 512;" xml:space="preserve">
<path style="fill:#FDB62F;" d="M150.069,300.138c-34.127,0-61.793,27.666-61.793,61.793c-0.009,7.618,1.43,15.166,4.237,22.246
	L0,476.69V512h35.31v-26.483h26.483v-26.483h26.483v-26.483h26.483l8.828-8.828l4.237-4.237c7.08,2.807,14.627,4.246,22.246,4.237
	c34.127,0,61.793-27.666,61.793-61.793S184.196,300.138,150.069,300.138z M158.897,370.759c-9.754,0-17.655-7.901-17.655-17.655
	s7.901-17.655,17.655-17.655c9.754,0,17.655,7.901,17.655,17.655S168.651,370.759,158.897,370.759z"/>
<path style="fill:#4398D1;" d="M220.69,0h264.828C500.145,0,512,11.855,512,26.483v185.379c0,14.627-11.855,26.483-26.483,26.483
	H220.69c-14.627,0-26.483-11.855-26.483-26.483V26.483C194.207,11.855,206.062,0,220.69,0z"/>
<path style="fill:#3E8CC7;" d="M485.517,0h-47.139c-43.167,138.946-144.419,206.477-218.659,238.345h265.799
	c14.627,0,26.483-11.855,26.483-26.483V26.483C512,11.855,500.145,0,485.517,0z"/>
<g>
	<polygon style="fill:#E5E5E5;" points="406.069,300.138 300.138,300.138 317.793,238.345 388.414,238.345 	"/>
	<rect x="273.655" y="291.31" style="fill:#E5E5E5;" width="158.897" height="17.655"/>
</g>
<rect x="308.966" y="88.276" style="fill:#FDB62F;" width="88.276" height="70.621"/>
<path style="fill:#E5E5E5;" d="M388.414,88.276h-17.655v-35.31c0-9.754-7.901-17.655-17.655-17.655s-17.655,7.901-17.655,17.655
	v8.828h-17.655v-8.828c0-19.5,15.81-35.31,35.31-35.31c19.5,0,35.31,15.81,35.31,35.31V88.276z"/>
<rect x="344.276" y="114.759" style="fill:#126099;" width="17.655" height="17.655"/>
<path style="fill:#CCCCCC;" d="M370.759,79.448v8.828h17.655V61.175C383.135,67.822,377.22,73.94,370.759,79.448z"/>
<g>
	<rect x="238.345" y="61.793" style="fill:#87CED9;" width="26.483" height="17.655"/>
	
		<rect x="256.086" y="22.798" transform="matrix(-0.7071 0.7071 -0.7071 -0.7071 477.1894 -127.0796)" style="fill:#87CED9;" width="17.655" height="24.982"/>
	
		<rect x="252.381" y="97.094" transform="matrix(-0.7071 0.7071 -0.7071 -0.7071 527.0627 -6.4729)" style="fill:#87CED9;" width="24.982" height="17.655"/>
</g>
<path style="fill:#E5E5E5;" d="M194.207,194.207v17.655c0,14.627,11.855,26.483,26.483,26.483h264.828
	c14.627,0,26.483-11.855,26.483-26.483v-17.655H194.207z"/>
<polygon style="fill:#CCCCCC;" points="393.446,256 388.414,238.345 317.793,238.345 312.761,256 "/>
<g>
	<rect x="150.069" y="114.759" style="fill:#87CED9;" width="17.655" height="17.655"/>
	<rect x="114.759" y="114.759" style="fill:#87CED9;" width="17.655" height="17.655"/>
	<rect x="79.448" y="114.759" style="fill:#87CED9;" width="17.655" height="17.655"/>
	<rect x="44.138" y="114.759" style="fill:#87CED9;" width="17.655" height="17.655"/>
	<rect x="44.138" y="150.069" style="fill:#87CED9;" width="17.655" height="17.655"/>
	<rect x="44.138" y="185.379" style="fill:#87CED9;" width="17.655" height="17.655"/>
	<rect x="44.138" y="220.69" style="fill:#87CED9;" width="17.655" height="17.655"/>
	<rect x="44.138" y="256" style="fill:#87CED9;" width="17.655" height="17.655"/>
	<rect x="44.138" y="291.31" style="fill:#87CED9;" width="17.655" height="17.655"/>
	<rect x="44.138" y="326.621" style="fill:#87CED9;" width="17.655" height="17.655"/>
	<rect x="238.345" y="432.552" style="fill:#87CED9;" width="17.655" height="17.655"/>
	<rect x="273.655" y="432.552" style="fill:#87CED9;" width="17.655" height="17.655"/>
	<rect x="308.966" y="432.552" style="fill:#87CED9;" width="17.655" height="17.655"/>
	<rect x="344.276" y="432.552" style="fill:#87CED9;" width="17.655" height="17.655"/>
	<rect x="344.276" y="397.241" style="fill:#87CED9;" width="17.655" height="17.655"/>
	<rect x="344.276" y="361.931" style="fill:#87CED9;" width="17.655" height="17.655"/>
	<rect x="344.276" y="326.621" style="fill:#87CED9;" width="17.655" height="17.655"/>
	<rect x="203.034" y="432.552" style="fill:#87CED9;" width="17.655" height="17.655"/>
</g>
<path style="fill:#FFA230;" d="M397.241,158.897h-88.276C333.665,135.309,372.542,135.309,397.241,158.897z"/>
<path style="fill:#FDC353;" d="M308.966,88.276h88.276C372.542,111.863,333.665,111.863,308.966,88.276z"/>
<path style="fill:#FFA230;" d="M171.608,340.215c3.151,3.275,4.926,7.636,4.943,12.182c-0.035,9.754-7.971,17.629-17.726,17.585
	c-4.511-0.018-8.845-1.766-12.111-4.873L0.53,511.294H35.31v-26.483h26.483v-26.483h26.483v-26.483h26.483l8.828-8.828l4.237-4.237
	c31.806,12.367,67.619-3.399,79.987-35.204c8.819-22.696,3.496-48.446-13.603-65.783L171.608,340.215z"/>
<g>
</g>
<g>
</g>
<g>
</g>
<g>
</g>
<g>
</g>
<g>
</g>
<g>
</g>
<g>
</g>
<g>
</g>
<g>
</g>
<g>
</g>
<g>
</g>
<g>
</g>
<g>
</g>
<g>
</g>
</svg>
