<?xml version="1.0" standalone="no"?>
<!DOCTYPE svg PUBLIC "-//W3C//DTD SVG 20010904//EN"
 "http://www.w3.org/TR/2001/REC-SVG-20010904/DTD/svg10.dtd">
<svg version="1.0" xmlns="http://www.w3.org/2000/svg"
 width="200.000000pt" height="200.000000pt" viewBox="0 0 200.000000 200.000000"
 preserveAspectRatio="xMidYMid meet">
<metadata>
Created by potrace 1.16, written by Peter Selinger 2001-2019
</metadata>
<g transform="translate(0.000000,200.000000) scale(0.100000,-0.100000)"
fill="#000000" stroke="none">
<path d="M880 1822 c-19 -4 30 -7 110 -7 120 0 159 -4 223 -23 143 -41 275
-121 377 -228 l55 -58 -70 65 c-38 36 -90 79 -115 96 -288 195 -666 188 -945
-19 l-40 -30 40 36 c22 20 81 57 130 82 50 25 79 43 65 39 -36 -10 -148 -72
-195 -108 -81 -62 -195 -182 -142 -151 8 5 8 2 -2 -9 -16 -20 -26 -23 -15 -4
5 8 2 8 -9 -2 -20 -16 -23 -36 -4 -25 8 5 8 2 -2 -9 -16 -20 -25 -22 -16 -4 4
6 -3 1 -14 -12 -23 -25 -28 -47 -9 -35 7 4 8 3 4 -5 -4 -6 -11 -9 -16 -6 -17
10 -101 -190 -99 -234 0 -9 7 2 15 24 7 22 12 29 9 15 -2 -14 -9 -56 -16 -95
-15 -88 -6 -237 20 -330 11 -38 18 -71 16 -73 -6 -7 -35 100 -47 173 -6 39 -8
115 -5 170 3 78 2 90 -5 55 -14 -67 -2 -244 22 -328 24 -85 87 -215 100 -207
5 3 12 0 16 -6 4 -8 3 -9 -4 -5 -17 10 -15 -6 4 -32 8 -12 19 -20 24 -17 4 3
14 -3 21 -13 13 -15 12 -16 -3 -3 -10 7 -18 9 -18 4 0 -21 179 -181 246 -221
39 -23 74 -42 79 -42 5 0 -24 20 -66 44 -41 24 -81 51 -89 60 -7 9 11 0 41
-20 76 -52 170 -92 269 -116 70 -17 107 -19 215 -16 145 6 233 29 355 94 36
19 56 27 45 18 -34 -27 -127 -71 -200 -94 -53 -17 -102 -23 -205 -27 -120 -4
-145 -2 -225 20 -49 13 -99 27 -110 31 -11 4 -8 0 7 -8 15 -9 67 -26 115 -37
117 -28 311 -23 418 11 126 39 246 112 353 214 41 39 59 71 25 45 -10 -7 -7
-1 6 14 27 30 41 37 20 9 -11 -14 -10 -13 9 2 23 20 31 42 10 30 -9 -5 -9 -2
1 9 15 19 26 23 15 5 -4 -7 -3 -8 4 -4 30 18 133 241 131 284 0 9 -9 -12 -20
-46 -11 -35 -22 -62 -24 -60 -2 2 5 33 17 68 30 95 36 291 13 396 -10 43 -20
85 -22 94 -4 13 -4 13 7 0 21 -27 1 30 -39 110 -20 41 -42 75 -48 75 -6 0 -15
4 -20 9 -5 5 -3 6 5 2 18 -11 15 9 -5 25 -15 12 -16 12 -8 -1 8 -13 7 -13 -8
-1 -18 15 -23 26 -7 16 6 -3 10 -2 10 3 0 13 -149 155 -200 189 -71 48 -162
91 -242 113 -77 22 -272 35 -338 22z m345 -422 c-3 -5 -13 -10 -22 -10 -9 0
-13 -3 -9 -7 11 -11 67 -12 60 -2 -3 5 5 9 18 9 23 -1 23 -1 3 -16 -11 -8 -28
-13 -37 -10 -10 2 -18 0 -18 -5 0 -5 -7 -9 -15 -9 -8 0 -15 -4 -15 -10 0 -5
15 -10 33 -10 33 0 110 -31 120 -47 4 -6 -15 1 -40 14 -26 13 -62 22 -82 22
-34 -1 -34 -2 10 -9 56 -10 96 -30 128 -64 13 -14 27 -23 32 -21 4 3 11 0 15
-6 4 -8 3 -9 -4 -5 -16 9 -16 10 14 -59 14 -33 23 -50 21 -37 -3 12 -1 20 4
16 5 -3 9 -11 9 -18 0 -19 48 -26 96 -16 l39 9 -27 -24 c-15 -13 -45 -26 -67
-30 -56 -9 -43 -22 31 -30 58 -7 60 -8 37 -21 -13 -7 -43 -16 -66 -20 -30 -4
-43 -11 -44 -23 -1 -12 -3 -11 -6 3 -4 16 -8 11 -19 -20 -8 -21 -12 -45 -9
-52 3 -7 1 -10 -5 -7 -5 3 -14 -3 -19 -14 -14 -26 -14 -34 2 -25 6 4 9 4 5 0
-3 -4 -10 -8 -15 -8 -12 0 -33 -19 -33 -30 0 -6 7 -5 18 2 9 7 -11 -15 -46
-49 -35 -34 -67 -59 -72 -56 -5 3 -37 -8 -71 -25 -177 -90 -403 -94 -574 -10
-33 16 -61 27 -63 25 -7 -7 126 -65 183 -80 134 -34 324 -11 454 54 34 17 61
29 61 26 0 -12 -129 -68 -198 -86 -92 -23 -234 -25 -317 -4 -81 21 -177 69
-222 111 -21 20 -44 40 -53 45 -16 11 -10 9 60 -17 42 -16 141 -18 192 -4 20
6 61 27 90 46 29 20 45 27 35 16 -40 -44 -118 -75 -206 -83 l-86 -7 85 2 c93
3 140 20 205 77 39 34 38 49 -4 49 -16 0 -36 9 -47 22 -10 12 -14 18 -8 15 7
-4 14 2 17 14 4 14 2 18 -7 12 -6 -4 -3 0 7 9 11 10 23 16 27 13 5 -3 11 -1
14 3 6 10 -17 22 -88 45 -26 8 -44 11 -38 5 6 -6 32 -17 59 -24 26 -7 38 -13
25 -13 -31 -1 -83 22 -105 47 -18 20 -18 21 2 31 11 6 29 11 40 11 34 0 24 16
-21 33 -23 9 -38 20 -35 24 4 3 0 15 -9 25 -13 13 -14 21 -5 31 9 12 6 14 -16
11 l-28 -4 29 10 c16 5 33 7 38 4 4 -3 8 0 8 6 0 6 5 8 10 5 27 -17 5 7 -32
35 l-43 32 35 -32 c19 -18 26 -28 15 -22 -11 6 -31 23 -45 38 -14 15 -19 24
-11 19 11 -6 13 -4 7 11 -5 10 -9 25 -9 32 0 6 -7 12 -16 13 -9 0 -11 3 -5 5
13 6 230 -86 289 -121 46 -28 85 -60 85 -70 0 -4 -18 9 -41 28 -37 32 -230
126 -289 141 -26 6 -24 5 148 -71 58 -26 122 -63 148 -86 24 -22 48 -36 52
-32 7 6 8 10 11 38 1 9 3 9 10 -1 5 -9 13 1 25 32 10 25 15 50 11 56 -4 6 -1
9 7 8 8 -2 13 6 12 19 0 12 4 21 9 20 5 -1 12 4 15 12 3 9 0 11 -9 6 -8 -5
-11 -4 -6 1 5 5 14 9 19 9 6 0 13 6 16 14 3 9 0 11 -8 6 -9 -5 -11 -4 -6 4 4
6 11 9 15 6 5 -2 16 4 26 15 10 11 21 18 25 15 4 -2 16 2 26 11 18 14 17 14
-6 3 -34 -16 -13 6 25 25 35 19 38 19 30 6z"/>
</g>
</svg>
